<svg width="20" height="21" viewBox="0 0 20 21" fill="none" xmlns="http://www.w3.org/2000/svg">
<path d="M1.25 8.06625C0.918479 8.06625 0.600537 8.19795 0.366117 8.43237C0.131696 8.66679 0 8.98473 0 9.31625L0 10.6737C0 12.3406 2.5 12.3406 2.5 10.6737V9.31625C2.5 8.98473 2.3683 8.66679 2.13388 8.43237C1.89946 8.19795 1.58152 8.06625 1.25 8.06625ZM18.75 8.06625C18.4185 8.06625 18.1005 8.19795 17.8661 8.43237C17.6317 8.66679 17.5 8.98473 17.5 9.31625V10.6737C17.5 12.3406 20 12.3406 20 10.6737V9.31625C20 8.98473 19.8683 8.66679 19.6339 8.43237C19.3995 8.19795 19.0815 8.06625 18.75 8.06625ZM5.56625 12.1581C5.23473 12.1581 4.91679 12.2898 4.68237 12.5242C4.44795 12.7587 4.31625 13.0766 4.31625 13.4081V14.7656C4.31625 16.4325 6.81625 16.4325 6.81625 14.7656V13.4181C6.81625 12.725 6.25938 12.1681 5.56625 12.1681V12.1581ZM5.56625 3.97438C5.23473 3.97438 4.91679 4.10607 4.68237 4.34049C4.44795 4.57491 4.31625 4.89285 4.31625 5.22438V9.69063C4.31625 11.3575 6.81625 11.3575 6.81625 9.69063V5.21812C6.81625 4.525 6.25938 3.96812 5.56625 3.96812V3.97438ZM14.4338 3.97438C13.7406 3.97438 13.1838 4.53438 13.1838 5.22438V6.59188C13.1838 8.25875 15.6838 8.25875 15.6838 6.59188V5.22438C15.6838 4.89285 15.5521 4.57491 15.3176 4.34049C15.0832 4.10607 14.7653 3.97438 14.4338 3.97438ZM10 0C9.66848 0 9.35054 0.131696 9.11612 0.366117C8.8817 0.600537 8.75 0.918479 8.75 1.25V2.6075C8.75 4.27437 11.25 4.27437 11.25 2.6075V1.25C11.25 0.918479 11.1183 0.600537 10.8839 0.366117C10.6495 0.131696 10.3315 0 10 0V0ZM10 16.1331C9.66848 16.1331 9.35054 16.2648 9.11612 16.4992C8.8817 16.7337 8.75 17.0516 8.75 17.3831V18.7506C8.74375 20.4175 11.2437 20.4269 11.25 18.7606V17.3931C11.25 16.7094 10.69 16.1431 10 16.1431V16.1331ZM14.4338 9.08187C13.7406 9.08187 13.1838 9.64812 13.1838 10.3319V14.775C13.1838 16.4419 15.6838 16.4419 15.6838 14.775V10.3319C15.6838 10.0004 15.5521 9.68241 15.3176 9.44799C15.0832 9.21357 14.7653 9.08187 14.4338 9.08187ZM10 5.1075C9.31 5.1075 8.75 5.67375 8.75 6.3575V13.6331C8.75 15.3 11.25 15.3 11.25 13.6331V6.3675C11.25 5.67438 10.69 5.1175 10 5.1175V5.1075Z" fill="#8D99AE"/>
</svg>
