<svg width="18" height="22" viewBox="0 0 18 22" fill="none" xmlns="http://www.w3.org/2000/svg">
<path d="M16.8261 0H3.52174C2.58772 0 1.69195 0.371039 1.03149 1.03149C0.371039 1.69195 0 2.58772 0 3.52174V19.9565C0 20.2679 0.12368 20.5665 0.343831 20.7866C0.563982 21.0068 0.862572 21.1304 1.17391 21.1304H15.2609C15.5722 21.1304 15.8708 21.0068 16.091 20.7866C16.3111 20.5665 16.4348 20.2679 16.4348 19.9565C16.4348 19.6452 16.3111 19.3466 16.091 19.1264C15.8708 18.9063 15.5722 18.7826 15.2609 18.7826H2.34783V18.3913C2.34783 18.08 2.47151 17.7814 2.69166 17.5612C2.91181 17.3411 3.2104 17.2174 3.52174 17.2174H16.8261C17.1374 17.2174 17.436 17.0937 17.6562 16.8736C17.8763 16.6534 18 16.3548 18 16.0435V1.17391C18 0.862572 17.8763 0.563983 17.6562 0.343831C17.436 0.12368 17.1374 0 16.8261 0ZM15.6522 14.8696H3.52174C3.12133 14.8677 2.72379 14.9372 2.34783 15.075V3.52174C2.34783 3.2104 2.47151 2.91181 2.69166 2.69166C2.91181 2.47151 3.2104 2.34783 3.52174 2.34783H15.6522V14.8696Z" fill="#8D99AE"/>
</svg>
